<?xml version="1.0" encoding="utf-8"?>
<!-- Generator: Adobe Illustrator 20.1.0, SVG Export Plug-In . SVG Version: 6.00 Build 0)  -->
<svg version="1.1" id="Layer_1" xmlns="http://www.w3.org/2000/svg" xmlns:xlink="http://www.w3.org/1999/xlink" x="0px" y="0px"
	 viewBox="0 0 1000 1624.7" style="enable-background:new 0 0 1000 1624.7;" xml:space="preserve">
<style type="text/css">
	.st0{fill:#EF9595;}
	.st1{fill:#9CC6DB;}
	.st2{fill:#FCF297;}
</style>
<g>
	<rect x="20.5" y="22.8" class="st0" width="959" height="146.7"/>
	<path d="M979,23.3v145.7H21V23.3H979 M980,22.3H20v147.7h960V22.3L980,22.3z"/>
</g>
<g>
	<rect x="20.5" y="190.5" class="st1" width="690" height="399"/>
	<path d="M710,191v398H21V191H710 M711,190H20v400h691V190L711,190z"/>
</g>
<g>
	<rect x="710.2" y="190.5" class="st2" width="268" height="399"/>
	<path d="M977.7,191v398h-267V191H977.7 M978.7,190h-269v400h269V190L978.7,190z"/>
</g>
<g>
	<rect x="20.5" y="1450.4" class="st0" width="959" height="146.7"/>
	<path d="M979,1450.9v145.7H21v-145.7H979 M980,1449.9H20v147.7h960V1449.9L980,1449.9z"/>
</g>
<g>
	<rect x="20.5" y="610.5" class="st2" width="268" height="399"/>
	<path d="M288,611v398H21V611H288 M289,610H20v400h269V610L289,610z"/>
</g>
<g>
	<rect x="289.5" y="610.5" class="st1" width="690" height="399"/>
	<path d="M979,611v398H290V611H979 M980,610H289v400h691V610L980,610z"/>
</g>
<g>
	<rect x="710.2" y="1030.4" class="st2" width="268" height="399"/>
	<path d="M977.7,1030.9v398h-267v-398H977.7 M978.7,1029.9h-269v400h269V1029.9L978.7,1029.9z"/>
</g>
<g>
	<rect x="20.5" y="1030.4" class="st1" width="690" height="399"/>
	<path d="M710,1030.9v398H21v-398H710 M711,1029.9H20v400h691V1029.9L711,1029.9z"/>
</g>
</svg>
