<?xml version="1.0" encoding="utf-8"?>
<!-- Generator: Adobe Illustrator 20.1.0, SVG Export Plug-In . SVG Version: 6.00 Build 0)  -->
<svg version="1.1" id="Layer_1" xmlns="http://www.w3.org/2000/svg" xmlns:xlink="http://www.w3.org/1999/xlink" x="0px" y="0px"
	 viewBox="0 0 414 736" style="enable-background:new 0 0 414 736;" xml:space="preserve">
<style type="text/css">
	.st0{fill:#ECDBD0;}
	.st1{fill:#AD5733;}
	.st2{font-family:'Lora-Regular';}
	.st3{font-size:60px;}
	.st4{fill:none;stroke:#AD5733;stroke-miterlimit:10;}
	.st5{fill:none;}
	.st6{font-family:'Raleway-Medium';}
	.st7{font-size:18px;}
	.st8{font-family:'Raleway-Thin';}
	.st9{font-size:14px;}
</style>
<g>
	<rect class="st0" width="414" height="736"/>
</g>
<rect class="st1" width="414" height="102.8"/>
<text transform="matrix(1 0 0 1 17.3036 71.0388)"><tspan x="0" y="0" class="st0 st2 st3">Lorum Ipsum</tspan><tspan x="374.2" y="0" class="st2 st3"> </tspan></text>
<rect y="112.8" class="st4" width="298" height="247.6"/>
<rect x="298" y="112.8" class="st4" width="116" height="623.2"/>
<text transform="matrix(1 0 0 1 338.9932 193.6833)"><tspan x="0" y="0" class="st1 st2 st3">S</tspan><tspan x="7" y="72" class="st1 st2 st3">I</tspan><tspan x="-5.3" y="144" class="st1 st2 st3">D</tspan><tspan x="-1.7" y="216" class="st1 st2 st3">E</tspan><tspan x="-1.7" y="288" class="st1 st2 st3">B</tspan><tspan x="-1.8" y="360" class="st1 st2 st3">A</tspan><tspan x="-1.8" y="432" class="st1 st2 st3">R</tspan></text>
<rect y="373.7" class="st1" width="215" height="215"/>
<rect x="215" y="373.7" class="st4" width="83" height="215"/>
<rect y="112.8" class="st5" width="298" height="470.9"/>
<text transform="matrix(1 0 0 1 53.6461 147.4961)"><tspan x="0" y="0" class="st1 st6 st7">Learning Lorem Ipsum</tspan><tspan x="-48.6" y="33.6" class="st1 st8 st9">Lorem Ipsum is simply dummy text of the </tspan><tspan x="-48.6" y="50.4" class="st1 st8 st9">printing and typesetting industry. Lorem </tspan><tspan x="-48.6" y="67.2" class="st1 st8 st9">Ipsum has been the industry&apos;s standard </tspan><tspan x="-48.6" y="84" class="st1 st8 st9">dummy text ever since the 1500s, when an </tspan><tspan x="-48.6" y="100.8" class="st1 st8 st9">unknown printer took a galley of type and </tspan><tspan x="-48.6" y="117.6" class="st1 st8 st9">scrambled it to make a type specimen book. </tspan><tspan x="-48.6" y="134.4" class="st1 st8 st9">It has survived not only five centuries, but also </tspan><tspan x="-48.6" y="151.2" class="st1 st8 st9">the leap into electronic typesetting, remaining </tspan><tspan x="-48.6" y="168" class="st1 st8 st9">essentially unchanged. It was popularised in </tspan><tspan x="-48.6" y="184.8" class="st1 st8 st9">the 1960s with the release of Letraset sheets </tspan><tspan x="-48.6" y="201.6" class="st1 st8 st9">containing Lorem Ipsum passages, </tspan></text>
<image style="overflow:visible;" width="2000" height="1333" xlink:href="../images/europe.jpg"  transform="matrix(0.1487 0 0 0.1033 0.5222 596.9353)">
</image>
<rect x="0.5" y="373.7" class="st5" width="214.5" height="219.5"/>
<text transform="matrix(1 0 0 1 51.8177 386.8307)"><tspan x="0" y="0" class="st0 st6 st7">Lorem Ipsum </tspan><tspan x="-6" y="21.6" class="st0 st6 st7">Development?</tspan><tspan x="-41.5" y="55.2" class="st0 st8 st9">Lorem Ipsum is simply dummy </tspan><tspan x="-42.5" y="72" class="st0 st8 st9">text of the printing and typeset</tspan><tspan x="148.5" y="72" class="st0 st8 st9">-</tspan><tspan x="-40.1" y="88.8" class="st0 st8 st9">ting industry. Lorem Ipsum has </tspan><tspan x="-32.6" y="105.6" class="st0 st8 st9">been the industry&apos;s standard </tspan><tspan x="-28" y="122.4" class="st0 st8 st9">dummy text ever since the </tspan><tspan x="-45.7" y="139.2" class="st0 st8 st9">1500s, when an unknown printer </tspan><tspan x="-45.9" y="156" class="st0 st8 st9">took a galley of type and scram</tspan><tspan x="151.9" y="156" class="st0 st8 st9">-</tspan><tspan x="-45" y="172.8" class="st0 st8 st9">bled it to make a type specimen </tspan><tspan x="-8.7" y="189.6" class="st0 st8 st9">book. It has survived.</tspan></text>
</svg>
