<?xml version="1.0" encoding="utf-8"?>
<!-- Generator: Adobe Illustrator 20.1.0, SVG Export Plug-In . SVG Version: 6.00 Build 0)  -->
<svg version="1.1" id="Layer_1" xmlns="http://www.w3.org/2000/svg" xmlns:xlink="http://www.w3.org/1999/xlink" x="0px" y="0px"
	 viewBox="0 0 1000 1625" style="enable-background:new 0 0 1000 1625;" xml:space="preserve">
<style type="text/css">
	.st0{fill:#ECDBD0;}
	.st1{fill:#AD5733;}
	.st2{font-family:'Lora-Regular';}
	.st3{font-size:60px;}
	.st4{fill:none;}
	.st5{font-family:'Raleway-Medium';}
	.st6{font-size:18px;}
	.st7{font-family:'Raleway-Thin';}
	.st8{font-size:14px;}
	.st9{font-size:31.9527px;}
</style>
<g>
	<rect x="712" y="1340.7" class="st0" width="269" height="254.3"/>
</g>
<g>
	<rect x="21" y="861.9" class="st0" width="269" height="460.3"/>
</g>
<g>
	<rect x="712" y="201" class="st1" width="269" height="460.3"/>
</g>
<g>
	<rect x="20" y="32.3" class="st1" width="960" height="147.7"/>
</g>
<text transform="matrix(1 0 0 1 305.6693 126.9538)"><tspan x="0" y="0" class="st0 st2 st3">Lorum Ipsum</tspan><tspan x="374.2" y="0" class="st2 st3"> </tspan></text>
<g>
	<path d="M710,202v398H21V202H710 M711,201H20v400h691V201L711,201z"/>
</g>
<image style="overflow:visible;" width="2000" height="1333" xlink:href="../images/europe.jpg"  transform="matrix(0.3455 0 0 0.3453 21 200.9684)">
</image>
<rect x="712" y="201" class="st4" width="269" height="460.3"/>
<text transform="matrix(1 0 0 1 752.2715 235.708)"><tspan x="0" y="0" class="st0 st5 st6">What is Lorem Ipsum?</tspan><tspan x="-35.3" y="33.6" class="st0 st7 st8">Lorem Ipsum is simply dummy text of </tspan><tspan x="-35.3" y="50.4" class="st0 st7 st8">the printing and typesetting industry. </tspan><tspan x="-35.3" y="67.2" class="st0 st7 st8">Lorem Ipsum has been the industry&apos;s </tspan><tspan x="-35.3" y="84" class="st0 st7 st8">standard dummy text ever since the </tspan><tspan x="-35.3" y="100.8" class="st0 st7 st8">1500s, when an unknown printer took a </tspan><tspan x="-35.3" y="117.6" class="st0 st7 st8">galley of type and scrambled it to make </tspan><tspan x="-35.3" y="134.4" class="st0 st7 st8">a type specimen book. It has survived </tspan><tspan x="-35.3" y="151.2" class="st0 st7 st8">not only five centuries, but also the leap </tspan><tspan x="-35.3" y="168" class="st0 st7 st8">into electronic typesetting, remaining </tspan><tspan x="-35.3" y="184.8" class="st0 st7 st8">essentially unchanged. It was popular</tspan><tspan x="199.2" y="184.8" class="st0 st7 st8">-</tspan><tspan x="-35.3" y="201.6" class="st0 st7 st8">ised in the 1960s with the release of </tspan><tspan x="-35.3" y="218.4" class="st0 st7 st8">Letraset sheets containing Lorem Ipsum </tspan><tspan x="-35.3" y="235.2" class="st0 st7 st8">passages, and more recently with desk</tspan><tspan x="210.3" y="235.2" class="st0 st7 st8">-</tspan><tspan x="-35.3" y="252" class="st0 st7 st8">top publishing software like Aldus Page</tspan><tspan x="211.9" y="252" class="st0 st7 st8">-</tspan><tspan x="-35.3" y="268.8" class="st0 st7 st8">Maker including versions of Lorem </tspan><tspan x="-35.3" y="285.6" class="st0 st7 st8">Ipsum.</tspan><tspan x="-35.3" y="319.2" class="st0 st7 st8">It has survived not only five centuries, but </tspan><tspan x="-35.3" y="336" class="st0 st7 st8">also the leap into electronic typesetting, </tspan><tspan x="-35.3" y="352.8" class="st0 st7 st8">remaining essentially unchanged. It was </tspan><tspan x="-35.3" y="369.6" class="st0 st7 st8">popularised in the 1960s with the release </tspan><tspan x="-35.3" y="386.4" class="st0 st7 st8">of Letraset sheets containing Lorem </tspan><tspan x="-35.3" y="403.2" class="st0 st7 st8">Ipsum passages, Ipsum. 1960s with the </tspan><tspan x="-35.3" y="420" class="st0 st7 st8">Lorem Ipsum passages, Ipsum.</tspan></text>
<g>
	<rect x="20" y="682.2" class="st0" width="960" height="147.7"/>
</g>
<g id="TshkQv_1_">
	
		<image style="overflow:visible;" width="114" height="86" id="TshkQv" xlink:href="EFEB27FBDE257852.png"  transform="matrix(1.0988 0 0 1.0988 410.911 708.844)">
	</image>
</g>
<rect x="21" y="861.4" class="st4" width="269" height="460.3"/>
<text transform="matrix(1 0 0 1 60.146 896.166)"><tspan x="0" y="0" class="st1 st5 st6">Learning Lorem Ipsum</tspan><tspan x="-34.1" y="33.6" class="st1 st7 st8">Lorem Ipsum is simply dummy text of </tspan><tspan x="-34.1" y="50.4" class="st1 st7 st8">the printing and typesetting industry. </tspan><tspan x="-34.1" y="67.2" class="st1 st7 st8">Lorem Ipsum has been the industry&apos;s </tspan><tspan x="-34.1" y="84" class="st1 st7 st8">standard dummy text ever since the </tspan><tspan x="-34.1" y="100.8" class="st1 st7 st8">1500s, when an unknown printer took a </tspan><tspan x="-34.1" y="117.6" class="st1 st7 st8">galley of type and scrambled it to make </tspan><tspan x="-34.1" y="134.4" class="st1 st7 st8">a type specimen book. It has survived </tspan><tspan x="-34.1" y="151.2" class="st1 st7 st8">not only five centuries, but also the leap </tspan><tspan x="-34.1" y="168" class="st1 st7 st8">into electronic typesetting, remaining </tspan><tspan x="-34.1" y="184.8" class="st1 st7 st8">essentially unchanged. It was popular</tspan><tspan x="200.4" y="184.8" class="st1 st7 st8">-</tspan><tspan x="-34.1" y="201.6" class="st1 st7 st8">ised in the 1960s with the release of </tspan><tspan x="-34.1" y="218.4" class="st1 st7 st8">Letraset sheets containing Lorem Ipsum </tspan><tspan x="-34.1" y="235.2" class="st1 st7 st8">passages, and more recently with desk</tspan><tspan x="211.4" y="235.2" class="st1 st7 st8">-</tspan><tspan x="-34.1" y="252" class="st1 st7 st8">top publishing software like Aldus Page</tspan><tspan x="213" y="252" class="st1 st7 st8">-</tspan><tspan x="-34.1" y="268.8" class="st1 st7 st8">Maker including versions of Lorem </tspan><tspan x="-34.1" y="285.6" class="st1 st7 st8">Ipsum.</tspan><tspan x="-34.1" y="319.2" class="st1 st7 st8">It has survived not only five centuries, but </tspan><tspan x="-34.1" y="336" class="st1 st7 st8">also the leap into electronic typesetting, </tspan><tspan x="-34.1" y="352.8" class="st1 st7 st8">remaining essentially unchanged. It was </tspan><tspan x="-34.1" y="369.6" class="st1 st7 st8">popularised in the 1960s with the release </tspan><tspan x="-34.1" y="386.4" class="st1 st7 st8">of Letraset sheets containing Lorem </tspan><tspan x="-34.1" y="403.2" class="st1 st7 st8">Ipsum passages, Ipsum. 1960s with the </tspan><tspan x="-34.1" y="420" class="st1 st7 st8">Lorem Ipsum passages, Ipsum.</tspan></text>
<g>
	<rect x="291" y="861.9" class="st1" width="498" height="460.3"/>
</g>
<g>
	<rect x="789" y="861.9" class="st1" width="193" height="460.3"/>
</g>
<image style="overflow:visible;" width="4707" height="3138" xlink:href="../images/blue-sky.jpg"  transform="matrix(0.1058 0 0 0.1464 291 861.9258)">
</image>
<g id="TshkQv_2_">
	
		<image style="overflow:visible;" width="114" height="86" id="TshkQv_3_" xlink:href="EFEB27FBDE257856.png"  transform="matrix(1.0988 0 0 1.0988 92.8701 714.085)">
	</image>
</g>
<g id="TshkQv_4_">
	
		<image style="overflow:visible;" width="114" height="86" id="TshkQv_5_" xlink:href="EFEB27FBDE257855.png"  transform="matrix(1.0988 0 0 1.0988 251.8906 714.085)">
	</image>
</g>
<g id="TshkQv_6_">
	
		<image style="overflow:visible;" width="114" height="86" id="TshkQv_7_" xlink:href="EFEB27FBDE257853.png"  transform="matrix(1.0988 0 0 1.0988 585.7402 708.844)">
	</image>
</g>
<g id="TshkQv_8_">
	
		<image style="overflow:visible;" width="114" height="86" id="TshkQv_9_" xlink:href="EFEB27FBDE25785D.png"  transform="matrix(1.0988 0 0 1.0988 760.2402 708.844)">
	</image>
</g>
<rect x="789" y="861.9" class="st4" width="193" height="460.3"/>
<text transform="matrix(1 0 0 1 829.5566 896.666)"><tspan x="0" y="0" class="st0 st5 st6">Lorem Ipsum </tspan><tspan x="-6" y="21.6" class="st0 st5 st6">Development?</tspan><tspan x="-15" y="55.2" class="st0 st7 st8">Lorem Ipsum is simply </tspan><tspan x="-27.2" y="72" class="st0 st7 st8">dummy text of the printing </tspan><tspan x="-20.6" y="88.8" class="st0 st7 st8">and typesetting industry. </tspan><tspan x="-28.8" y="105.6" class="st0 st7 st8">Lorem Ipsum has been the </tspan><tspan x="-29.2" y="122.4" class="st0 st7 st8">industry&apos;s standard dummy </tspan><tspan x="-23.3" y="139.2" class="st0 st7 st8">text ever since the 1500s, </tspan><tspan x="-23.9" y="156" class="st0 st7 st8">when an unknown printer </tspan><tspan x="-21.8" y="172.8" class="st0 st7 st8">took a galley of type and </tspan><tspan x="-31.6" y="189.6" class="st0 st7 st8">scrambled it to make a type </tspan><tspan x="-26.5" y="206.4" class="st0 st7 st8">specimen book. It has sur</tspan><tspan x="132.5" y="206.4" class="st0 st7 st8">-</tspan><tspan x="-33.2" y="223.2" class="st0 st7 st8">vived not only five centuries, </tspan><tspan x="-27.8" y="240" class="st0 st7 st8">but also the leap into elec</tspan><tspan x="133.8" y="240" class="st0 st7 st8">-</tspan><tspan x="-0.2" y="256.8" class="st0 st7 st8">tronic typesetting, </tspan><tspan x="-24.7" y="290.4" class="st0 st7 st8">Remaining essentially un</tspan><tspan x="130.7" y="290.4" class="st0 st7 st8">-</tspan><tspan x="-31.6" y="307.2" class="st0 st7 st8">changed. It was popularised </tspan><tspan x="-32.8" y="324" class="st0 st7 st8">in the 1960s with the release </tspan><tspan x="-34.2" y="340.8" class="st0 st7 st8">of Letraset sheets containing </tspan><tspan x="-19.5" y="357.6" class="st0 st7 st8">Lorem Ipsum passages, </tspan><tspan x="-19.2" y="374.4" class="st0 st7 st8">Ipsum passages, Ipsum.</tspan></text>
<text transform="matrix(1 0 0 1 829.9181 1407.0288)"><tspan x="0" y="0" class="st1 st2 st9">Site </tspan><tspan x="-39.2" y="38.3" class="st1 st2 st9">Produced</tspan><tspan x="1.8" y="76.7" class="st1 st2 st9"> By: </tspan><tspan x="-30.3" y="115" class="st1 st2 st9">Jasmine </tspan><tspan x="-6.1" y="153.4" class="st1 st2 st9">Irven</tspan></text>
<image style="overflow:visible;" width="7803" height="5205" xlink:href="../images/city.jpg"  transform="matrix(8.855569e-02 0 0 4.885715e-02 21 1340.7096)">
</image>
</svg>
