<?xml version="1.0" encoding="utf-8"?>
<!-- Generator: Adobe Illustrator 20.1.0, SVG Export Plug-In . SVG Version: 6.00 Build 0)  -->
<svg version="1.1" id="Layer_1" xmlns="http://www.w3.org/2000/svg" xmlns:xlink="http://www.w3.org/1999/xlink" x="0px" y="0px"
	 viewBox="0 0 230.5 492.6" style="enable-background:new 0 0 230.5 492.6;" xml:space="preserve">
<style type="text/css">
	.st0{fill:#FFFFFF;}
	.st1{font-family:'MyanmarMN';}
	.st2{font-size:7px;}
	.st3{font-family:'SnellRoundhand';}
	.st4{font-size:26.7752px;}
	.st5{font-size:10px;}
	.st6{fill:none;stroke:#000000;stroke-width:0.5;stroke-miterlimit:10;}
	.st7{font-size:5px;}
	.st8{font-size:4.3914px;}
</style>
<rect width="230.5" height="13"/>
<text transform="matrix(1 0 0 1 4.5439 8.7735)" class="st0 st1 st2">English/ Bok</text>
<text transform="matrix(1 0 0 1 201.7921 8.7737)" class="st0 st1 st2">Sign In</text>
<g id="qh2DLQ_1_">
	
		<image style="overflow:visible;" width="261" height="254" id="qh2DLQ" xlink:href="9C7FF361B639A1FE.png"  transform="matrix(0.1887 0 0 0.1887 9.3399 15.941)">
	</image>
</g>
<rect y="66.4" width="230.5" height="13"/>
<text transform="matrix(1 0 0 1 67.9434 39.6755)" class="st3 st4">Chicken Mingle</text>
<text transform="matrix(1 0 0 1 87.6918 54.653)" class="st1 st2">The Number 1 Chicken Dating Site</text>
<text transform="matrix(1 0 0 1 4.5438 75.2576)" class="st0 st1 st2">Profiles</text>
<text transform="matrix(1 0 0 1 62.4803 75.2576)" class="st0 st1 st2">Payment</text>
<text transform="matrix(1 0 0 1 129.585 75.2578)" class="st0 st1 st2">Sign Up</text>
<text transform="matrix(1 0 0 1 195.9692 75.2576)" class="st0 st1 st2">Contact</text>
<image style="overflow:visible;" width="500" height="574" xlink:href="chicken.jpg"  transform="matrix(0.168 0 0 0.168 9.3399 92.7055)">
</image>
<text transform="matrix(1 0 0 1 115.2302 101.1102)" class="st3 st5">Are you ready to find love? </text>
<rect x="123.8" y="120.8" class="st6" width="80.7" height="14.2"/>
<text transform="matrix(1 0 0 1 127.2715 130.4197)" class="st1 st2">Name</text>
<rect x="123.8" y="145.2" class="st6" width="80.7" height="14.2"/>
<text transform="matrix(1 0 0 1 127.2715 154.7993)" class="st1 st2">Farm Address</text>
<rect x="123.8" y="167" width="80.7" height="14.2"/>
<text transform="matrix(1 0 0 1 146.3577 176.5999)" class="st0 st1 st2">Sign Up</text>
<rect x="0.3" y="206.5" width="230.5" height="13"/>
<text transform="matrix(1 0 0 1 136.5324 113.9859)" class="st1 st2">Let us help you. </text>
<text transform="matrix(1 0 0 1 4.5438 215.3798)" class="st0 st1 st2">Feedback on Presentation</text>
<text transform="matrix(1 0 0 1 22.1169 232.7561)"><tspan x="0" y="0" class="st1 st7">I thought your verbal presentation of the information was very well done and was </tspan><tspan x="0" y="6" class="st1 st7">successful in engaging the audience (volume and pronounciation was clear). </tspan></text>
<g id="qh2DLQ_2_">
	
		<image style="overflow:visible;" width="261" height="254" id="qh2DLQ_3_" xlink:href="9C7FF361B639A202.png"  transform="matrix(4.652367e-02 0 0 4.652367e-02 5.2686 227.3427)">
	</image>
</g>
<text transform="matrix(1 0 0 1 22.1169 250.3198)"><tspan x="0" y="0" class="st1 st7">The visual presentation had good information, and was concise so that you could </tspan><tspan x="0" y="6" class="st1 st7">expand on it when presenting, which was effective. I find often during presentations I </tspan><tspan x="0" y="12" class="st1 st7">am overwhelmed with the amount of information on the screen, but this did not happen</tspan><tspan x="0" y="18" class="st1 st7">during your presentation.</tspan></text>
<g id="qh2DLQ_4_">
	
		<image style="overflow:visible;" width="261" height="254" id="qh2DLQ_5_" xlink:href="9C7FF361B639A206.png"  transform="matrix(4.652367e-02 0 0 4.652367e-02 5.2686 244.9064)">
	</image>
</g>
<text transform="matrix(1 0 0 1 22.1169 280.5256)"><tspan x="0" y="0" class="st1 st7">It was clear that you thought about the context of the presentation (for example, that </tspan><tspan x="0" y="6" class="st1 st7">it was going to be shown on a large screen) and that you took that into account </tspan><tspan x="0" y="12" class="st1 st7">when choosing the font type and sizes. Both of these elements were effective for the </tspan><tspan x="0" y="18" class="st1 st7">purposes of this presentation. However, I found a couple of the colour choices were </tspan><tspan x="0" y="24" class="st1 st7">not effective. For example when the yellow colour was used I found it difficult to read </tspan><tspan x="0" y="30" class="st1 st7">some of the elements. </tspan></text>
<g id="qh2DLQ_6_">
	
		<image style="overflow:visible;" width="261" height="254" id="qh2DLQ_7_" xlink:href="9C7FF361B639A205.png"  transform="matrix(4.652367e-02 0 0 4.652367e-02 5.2686 275.1122)">
	</image>
</g>
<rect x="0" y="318.9" width="230.5" height="13"/>
<text transform="matrix(1 0 0 1 4.2345 327.8222)" class="st0 st1 st2">Feedback on Website</text>
<text transform="matrix(1 0 0 1 22.1167 349.0232)"><tspan x="0" y="0" class="st1 st7">The logo on the website was very effective, as it clearly took into account the </tspan><tspan x="0" y="6" class="st1 st7">audience that would be visiting the website. It combined both the chicken, and elements</tspan><tspan x="0" y="12" class="st1 st7">of love, which would help make chickens feel secure and excited to sign up for Chicken</tspan><tspan x="0" y="18" class="st1 st7">Mingle. </tspan><tspan x="0" y="24" class="st1 st7"> </tspan></text>
<g id="qh2DLQ_8_">
	
		<image style="overflow:visible;" width="261" height="254" id="qh2DLQ_9_" xlink:href="9C7FF361B639A203.png"  transform="matrix(4.652367e-02 0 0 4.652367e-02 5.2686 342.1148)">
	</image>
</g>
<text transform="matrix(1 0 0 1 21.3923 381.8052)"><tspan x="0" y="0" class="st1 st7">I did not think that the colour scheme of the website was appropriate for the website. </tspan><tspan x="0" y="6" class="st1 st7">There were approximately 12 colours used, which makes the website appear messy. </tspan><tspan x="0" y="12" class="st1 st7">I believe you want the website to look more exclusive and professional, as it is the #1 </tspan><tspan x="0" y="18" class="st1 st7">chicken dating website, and you want to show that you put a lot of thought and work </tspan><tspan x="0" y="24" class="st1 st7">into the site. By changing the colours to black and white I believe you achieve this more </tspan><tspan x="0" y="30" class="st1 st7">professional feel. </tspan></text>
<g id="qh2DLQ_10_">
	
		<image style="overflow:visible;" width="261" height="254" id="qh2DLQ_11_" xlink:href="9C7FF361B639A20D.png"  transform="matrix(4.652367e-02 0 0 4.652367e-02 4.5439 376.3918)">
	</image>
</g>
<text transform="matrix(1 0 0 1 22.1169 425.531)"><tspan x="0" y="0" class="st1 st7">The overall layout of the website was effective because it included all of the elements</tspan><tspan x="0" y="6" class="st1 st7">a chicken would look for when signing up for a dating site. For example having profile</tspan><tspan x="0" y="12" class="st1 st7">and sign up links right on the main page make it easy for users to sign up. Although the </tspan><tspan x="0" y="18" class="st1 st7">elements were there however, I felt that the actual organization of them was not ideal. </tspan><tspan x="0" y="24" class="st1 st7">For example elements were not centered, so I believe that my redesign fixes this </tspan><tspan x="0" y="30" class="st1 st7">organization. I also felt that adding the name and email forum would also improve the </tspan><tspan x="0" y="36" class="st1 st7">website because it reduces the number of clicks that it takes for chickens to sign up.</tspan><tspan x="0" y="42" class="st1 st7">Sign ups are important for this style of website, so I think it is important to have this on</tspan><tspan x="0" y="48" class="st1 st7">the first page.</tspan></text>
<g id="qh2DLQ_12_">
	
		<image style="overflow:visible;" width="261" height="254" id="qh2DLQ_13_" xlink:href="9C7FF361B639A20E.png"  transform="matrix(4.652367e-02 0 0 4.652367e-02 5.2686 420.1176)">
	</image>
</g>
<text transform="matrix(1 0 0 1 87.6918 488.5046)" class="st1 st8">Chicken Mingle Copyright 2017 </text>
</svg>
