<svg id="Layer_1" data-name="Layer 1" xmlns="http://www.w3.org/2000/svg" viewBox="0 0 583.035 1486.856">
  <title>styleGuideLogos</title>
  <path d="M22.355,436.74,37.185,448.2l3-7.009,4.255,5.507-8.26,68.835,11.264,15.019,10.263-14.017-7.76-70.587,4.756-4.506,3,7.259L72.229,436.74l-12.766,6.7L51.7,429.424s19.524-3.254,19.524-9.011-46.808-7.009-47.309,0,18.022,9.011,18.022,9.011l-6.007,14.017Z" transform="translate(-1 -33.652)" style="fill: #323e50"/>
  <text transform="translate(81.54 402.336)" style="font-size: 23.243467330932617px;fill: #323e50;font-family: Champagne&Limousines-Bold, Champagne & Limousines;font-weight: 700">QU<tspan x="32.175" y="0" style="letter-spacing: -0.035628290229225985em">A</tspan><tspan x="45.057" y="0" style="letter-spacing: -0.000021007246597420984em">TRO C</tspan><tspan x="107.705" y="0" style="letter-spacing: -0.035628290229225985em">LO</tspan><tspan x="134.229" y="0">THING</tspan></text>
  <text x="-1" y="-33.652"></text>
  <path d="M322.093,436.74l14.83,11.457,3-7.009,4.255,5.507-8.26,68.835,11.264,15.019,10.263-14.017-7.76-70.587,4.756-4.506,3,7.259,14.518-11.958-12.766,6.7-7.76-14.017s19.524-3.254,19.524-9.011-46.808-7.009-47.309,0,18.022,9.011,18.022,9.011l-6.007,14.017Z" transform="translate(-1 -33.652)" style="fill: #9bafb8"/>
  <text transform="translate(381.278 402.336)" style="font-size: 23.243467330932617px;fill: #9bafb8;font-family: Champagne&Limousines-Bold, Champagne & Limousines;font-weight: 700">QU<tspan x="32.175" y="0" style="letter-spacing: -0.035628290229225985em">A</tspan><tspan x="45.057" y="0" style="letter-spacing: -0.000021007246597420984em">TRO C</tspan><tspan x="107.705" y="0" style="letter-spacing: -0.035628290229225985em">LO</tspan><tspan x="134.229" y="0">THING</tspan></text>
  <text transform="translate(21.355 40.358)" style="font-size: 47.40630340576172px;fill: #323e50;font-family: Champagne&Limousines-Bold, Champagne & Limousines;font-weight: 700">QU<tspan x="65.624" y="0" style="letter-spacing: -0.03564803169286146em">A</tspan><tspan x="91.896" y="0">TRO C</tspan><tspan x="219.67" y="0" style="letter-spacing: -0.03563773177038447em">LO</tspan><tspan x="273.767" y="0" style="letter-spacing: -0.000020599844953979462em">THING</tspan></text>
  <path d="M25.968,578.155,40.8,589.612l3-7.009,4.255,5.507L39.8,656.945l11.264,15.019,10.263-14.017-7.76-70.587,4.756-4.506,3,7.259,14.518-11.958-12.766,6.7-7.76-14.017s19.524-3.254,19.524-9.011-46.808-7.009-47.309,0,18.022,9.011,18.022,9.011l-6.007,14.017Z" transform="translate(-1 -33.652)" style="fill: gray"/>
  <text transform="translate(85.154 543.75)" style="font-size: 23.243467330932617px;fill: gray;font-family: Champagne&Limousines-Bold, Champagne & Limousines;font-weight: 700">QU<tspan x="32.175" y="0" style="letter-spacing: -0.035628290229225985em">A</tspan><tspan x="45.057" y="0" style="letter-spacing: -0.000021007246597420984em">TRO C</tspan><tspan x="107.705" y="0" style="letter-spacing: -0.035628290229225985em">LO</tspan><tspan x="134.229" y="0">THING</tspan></text>
  <circle cx="55.061" cy="203.017" r="31.925" style="fill: #9bafb8"/>
  <circle cx="147.726" cy="203.017" r="31.925" style="fill: #323e50"/>
  <circle cx="242.212" cy="203.017" r="31.925" style="fill: gray"/>
  <text transform="translate(23.136 148.116)" style="font-size: 26.555686950683594px;fill: gray;font-family: Raleway-Thin, Raleway">primar<tspan x="76.187" y="0" style="letter-spacing: -0.026992217385720774em">y</tspan><tspan x="89.704" y="0"> </tspan><tspan x="96.635" y="0" style="letter-spacing: -0.0049828957163013145em">c</tspan><tspan x="110.789" y="0">olours </tspan></text>
  <circle cx="336.698" cy="203.017" r="31.925" style="fill: #8fa898"/>
  <circle cx="429.363" cy="203.017" r="31.925" style="fill: #2a292d"/>
  <circle cx="523.85" cy="203.017" r="31.925" style="fill: #e2dac9"/>
  <text transform="translate(306 148.116)" style="font-size: 26.555686950683594px;fill: gray;font-family: Raleway-Thin, Raleway">se<tspan x="27.803" y="0" style="letter-spacing: -0.0049828957163013145em">c</tspan><tspan x="41.958" y="0">ondar</tspan><tspan x="111.054" y="0" style="letter-spacing: -0.026992217385720774em">y</tspan><tspan x="124.571" y="0"> </tspan><tspan x="131.502" y="0" style="letter-spacing: -0.0049828957163013145em">c</tspan><tspan x="145.656" y="0">olours </tspan></text>
  <text transform="translate(33.022 255.574)" style="font-size: 14.707388877868652px;fill: gray;font-family: Raleway-Thin, Raleway">#9c<tspan x="25.987" y="0" style="letter-spacing: -0.003917567419917824em">a</tspan><tspan x="33.636" y="0">fb7</tspan></text>
  <text transform="translate(122.329 255.575)" style="font-size: 14.707388877868652px;fill: gray;font-family: Raleway-Thin, Raleway">#2b292e</text>
  <text transform="translate(214.812 255.574)" style="font-size: 14.707388877868652px;fill: gray;font-family: Raleway-Thin, Raleway">#808080</text>
  <text transform="translate(314.645 255.574)" style="font-size: 14.707388877868652px;fill: gray;font-family: Raleway-Thin, Raleway">#8<tspan x="18.104" y="0" style="letter-spacing: -0.007967933735426083em">f</tspan><tspan x="22.385" y="0">a998</tspan></text>
  <text transform="translate(404.914 255.574)" style="font-size: 14.707388877868652px;fill: gray;font-family: Raleway-Thin, Raleway">#2b292e</text>
  <text transform="translate(500.575 255.574)" style="font-size: 14.707388877868652px;fill: gray;font-family: Raleway-Thin, Raleway">#e3dac9</text>
  <text transform="translate(282.585 75.12)" style="font-size: 26.555686950683594px;fill: #323e50;font-family: Raleway-Thin, Raleway"><tspan style="letter-spacing: -0.005994184514812651em">S</tspan><tspan x="15.827" y="0">tyle Guide</tspan></text>
  <rect y="92.98" width="491.925" height="3.561" style="fill: #323e50"/>
  <text transform="translate(23.136 335.764)" style="font-size: 26.555686950683594px;fill: gray;font-family: Raleway-Thin, Raleway">logo <tspan x="60.387" y="0" style="letter-spacing: -0.025980928587209438em">r</tspan><tspan x="68.274" y="0" style="letter-spacing: -0.00001838706906384249em">edesign</tspan></text>
  <rect x="254.335" y="751.665" width="125.223" height="125.223" style="fill: #e2dac9"/>
  <path d="M264.469,889.4l14.4,11.125,2.917-6.805,4.132,5.347L277.9,965.909l10.937,14.583,9.965-13.611-7.535-68.54,4.618-4.375,2.917,7.048L312.9,889.4l-12.4,6.507L292.966,882.3s18.958-3.16,18.958-8.75-45.45-6.805-45.936,0,17.5,8.75,17.5,8.75l-5.833,13.611Z" transform="translate(-1 -33.652)" style="fill: #2a292d"/>
  <text transform="translate(260.965 786.65)" style="font-size: 22.569311141967773px;fill: #2a292d;font-family: Champagne&Limousines-Bold, Champagne & Limousines;font-weight: 700">QU<tspan x="31.242" y="0" style="letter-spacing: -0.03565405673829711em">A</tspan><tspan x="43.75" y="0">TRO </tspan><tspan x="0" y="27.083">C</tspan><tspan x="15.638" y="27.083" style="letter-spacing: -0.03561078725196422em">LO</tspan><tspan x="41.392" y="27.083">THING</tspan></text>
  <rect x="55.346" y="751.665" width="125.223" height="125.223" style="fill: #8fa898"/>
  <path d="M65.48,889.4l14.4,11.125,2.917-6.805,4.132,5.347-8.021,66.839,10.937,14.583,9.965-13.611-7.535-68.54,4.618-4.375,2.917,7.048,14.1-11.611-12.4,6.507L93.977,882.3s18.958-3.16,18.958-8.75-45.45-6.805-45.936,0,17.5,8.75,17.5,8.75L78.665,895.91Z" transform="translate(-1 -33.652)" style="fill: #323e50"/>
  <text transform="translate(61.976 786.65)" style="font-size: 22.569311141967773px;fill: #323e50;font-family: Champagne&Limousines-Bold, Champagne & Limousines;font-weight: 700">QU<tspan x="31.242" y="0" style="letter-spacing: -0.03565405673829711em">A</tspan><tspan x="43.75" y="0">TRO </tspan><tspan x="0" y="27.083">C</tspan><tspan x="15.638" y="27.083" style="letter-spacing: -0.03561078725196422em">LO</tspan><tspan x="41.392" y="27.083">THING</tspan></text>
  <rect x="428.979" y="751.665" width="125.223" height="125.223" style="fill: #2a292d"/>
  <path d="M439.114,889.4l14.4,11.125,2.917-6.805,4.132,5.347-8.021,66.839,10.937,14.583,9.965-13.611-7.535-68.54,4.618-4.375,2.917,7.048,14.1-11.611-12.4,6.507L467.61,882.3s18.958-3.16,18.958-8.75-45.45-6.805-45.936,0,17.5,8.75,17.5,8.75L452.3,895.91Z" transform="translate(-1 -33.652)" style="fill: #9bafb8"/>
  <text transform="translate(435.609 786.65)" style="font-size: 22.569311141967773px;fill: #9bafb8;font-family: Champagne&Limousines-Bold, Champagne & Limousines;font-weight: 700">QU<tspan x="31.242" y="0" style="letter-spacing: -0.03565405673829711em">A</tspan><tspan x="43.75" y="0">TRO </tspan><tspan x="0" y="27.083">C</tspan><tspan x="15.638" y="27.083" style="letter-spacing: -0.03561078725196422em">LO</tspan><tspan x="41.392" y="27.083">THING</tspan></text>
  <text transform="translate(23.136 710.814)" style="font-size: 26.555686950683594px;fill: gray;font-family: Raleway-Thin, Raleway">bac<tspan x="44.215" y="0" style="letter-spacing: -0.02599931565627328em">k</tspan><tspan x="57.015" y="0">g</tspan><tspan x="73.028" y="0" style="letter-spacing: -0.025980928587209438em">r</tspan><tspan x="80.915" y="0" style="letter-spacing: 0.00001838706906384249em">ound </tspan><tspan x="149.746" y="0" style="letter-spacing: -0.005001282785365157em">c</tspan><tspan x="163.9" y="0" style="letter-spacing: 0.00003677413812768498em">olou</tspan><tspan x="216.639" y="0" style="letter-spacing: -0.023976738059250605em">r</tspan><tspan x="224.58" y="0"> </tspan><tspan x="231.51" y="0" style="letter-spacing: -0.005001282785365157em">c</tspan><tspan x="245.665" y="0">ombin</tspan><tspan x="321.347" y="0" style="letter-spacing: -0.004008381055917663em">a</tspan><tspan x="335.156" y="0">tions </tspan></text>
  <rect y="290.285" width="491.925" height="3.561" style="fill: #323e50"/>
  <rect y="659.919" width="491.925" height="3.561" style="fill: #323e50"/>
  <rect y="990.24" width="491.925" height="3.561" style="fill: #323e50"/>
  <text transform="translate(24.968 1046.539)" style="font-size: 26.555686950683594px;fill: gray;font-family: Raleway-Thin, Raleway"><tspan style="letter-spacing: -0.025980928587209438em">f</tspan><tspan x="7.25" y="0">o</tspan><tspan x="22.812" y="0" style="letter-spacing: -0.0049828957163013145em">n</tspan><tspan x="37.683" y="0">t choi</tspan><tspan x="102.292" y="0" style="letter-spacing: -0.005001282785365157em">c</tspan><tspan x="116.446" y="0">e</tspan></text>
  <text transform="translate(338.209 1218.717)" style="font-size: 167.31591796875px;fill: #231f20;font-family: Raleway-Thin, Raleway"><tspan style="letter-spacing: -0.007996194511808979em">A</tspan><tspan x="111.433" y="0">a</tspan></text>
  <text transform="translate(43.661 1218.762)" style="font-size: 173.66061401367188px;fill: #231f20;font-family: Champagne&Limousines, Champagne & Limousines">Aa</text>
  <text transform="translate(342.553 1310.148)" style="font-size: 25.146041870117188px;fill: #231f20;font-family: Raleway-Thin, Raleway">heading si<tspan x="114.286" y="0" style="letter-spacing: -0.014019664180983767em">z</tspan><tspan x="126.205" y="0" style="letter-spacing: 0.000038835634850370546em">e: 30</tspan><tspan x="179.614" y="0" style="letter-spacing: -0.0220198049601601em">p</tspan><tspan x="194.224" y="0" style="letter-spacing: 0.000038835634850370546em">x</tspan><tspan x="0" y="30.175">bod</tspan><tspan x="45.086" y="30.175" style="letter-spacing: -0.02699076622100753em">y</tspan><tspan x="57.886" y="30.175" xml:space="preserve"> si</tspan><tspan x="81.02" y="30.175" style="letter-spacing: -0.014019664180983767em">z</tspan><tspan x="92.938" y="30.175" style="letter-spacing: 0.000038835634850370546em">e: 15</tspan><tspan x="140.891" y="30.175" style="letter-spacing: -0.02198096932530973em">p</tspan><tspan x="155.501" y="30.175">x</tspan><tspan x="0" y="60.351" style="letter-spacing: -0.025981039714897895em">f</tspan><tspan x="6.865" y="60.351">o</tspan><tspan x="21.601" y="60.351" style="letter-spacing: -0.00497096126084743em">n</tspan><tspan x="35.683" y="60.351">t</tspan><tspan x="43.101" y="60.351" style="letter-spacing: -0.02699076622100753em"> </tspan><tspan x="48.984" y="60.351" style="letter-spacing: -0.018990625441831197em">w</tspan><tspan x="68.473" y="60.351">eig</tspan><tspan x="102.847" y="60.351" style="letter-spacing: -0.0050097968956978em">h</tspan><tspan x="116.928" y="60.351">t: thin</tspan><tspan x="0" y="90.525">spacing: nar</tspan><tspan x="133.85" y="90.525" style="letter-spacing: -0.025981039714897895em">r</tspan><tspan x="141.318" y="90.525" style="letter-spacing: -0.018990625441831197em">o</tspan><tspan x="155.576" y="90.525" style="letter-spacing: -0.02699076622100753em">w</tspan><tspan style="font-size: 14px;font-family: Champagne&Limousines, Champagne & Limousines"><tspan x="0" y="124.126">*generally should be used for body copy and</tspan><tspan x="0" y="140.926">subheads only </tspan></tspan></text>
  <text transform="translate(43.662 1310.148)" style="font-size: 26.494644165039062px;fill: #231f20;font-family: Champagne&Limousines, Champagne & Limousines">heading siz<tspan x="111.723" y="0" style="letter-spacing: -0.01758167837991468em">e</tspan><tspan x="124.737" y="0">: 45px</tspan><tspan x="0" y="31.794">body siz</tspan><tspan x="82.252" y="31.794" style="letter-spacing: -0.01758167837991468em">e</tspan><tspan x="95.267" y="31.794">: 20px</tspan><tspan x="0" y="63.587">font weight: regular</tspan><tspan x="0" y="95.381">spacing: heavy</tspan><tspan style="font-size: 14px"><tspan x="0" y="128.98">*uppercase used for company name</tspan></tspan></text>
  <rect y="1471.279" width="491.925" height="3.561" style="fill: #323e50"/>
  <text transform="translate(36.082 1254.257)" style="font-size: 14px;fill: #231f20;font-family: Champagne&Limousines, Champagne & Limousines">font nam<tspan x="44.639" y="0" style="letter-spacing: -0.017578125em">e</tspan><tspan x="51.516" y="0">: Champagne &amp; Limousines</tspan></text>
  <text transform="translate(338.209 1254.257)" style="font-size: 14px;fill: #231f20;font-family: Raleway-Thin, Raleway"><tspan style="letter-spacing: -0.025983537946428572em">f</tspan><tspan x="3.822" y="0">o</tspan><tspan x="12.026" y="0" style="letter-spacing: -0.004987444196428571em">n</tspan><tspan x="19.866" y="0">t name: </tspan><tspan x="69.537" y="0" style="letter-spacing: -0.007010323660714286em">R</tspan><tspan x="78.427" y="0">al</tspan><tspan x="89.095" y="0" style="letter-spacing: -0.013985770089285714em">e</tspan><tspan x="96.963" y="0" style="letter-spacing: -0.013009207589285714em">wa</tspan><tspan x="115.051" y="0" style="letter-spacing: -0.026994977678571428em">y</tspan></text>
</svg>
