<?xml version="1.0" encoding="utf-8"?>
<!-- Generator: Adobe Illustrator 20.1.0, SVG Export Plug-In . SVG Version: 6.00 Build 0)  -->
<svg version="1.1" id="Layer_1" xmlns="http://www.w3.org/2000/svg" xmlns:xlink="http://www.w3.org/1999/xlink" x="0px" y="0px"
	 viewBox="0 0 1000 2227.9" style="enable-background:new 0 0 1000 2227.9;" xml:space="preserve">
<style type="text/css">
	.st0{opacity:0.78;fill:#DCECF3;}
	.st1{fill:#DEDAD5;}
	.st2{opacity:0.9;fill:#DEDAD5;}
	.st3{fill:#4B6E86;}
	.st4{font-family:'Raleway-Light';}
	.st5{font-size:37.0057px;}
	.st6{fill:#3E4350;}
	.st7{fill:#A0A09A;}
	.st8{font-family:'DancingScript-Bold';}
	.st9{font-size:81.506px;}
	.st10{font-size:69.9939px;}
	.st11{opacity:0.87;fill:#DEDAD5;}
	.st12{font-size:28.0102px;}
	.st13{font-size:41.8474px;}
	.st14{font-size:33.8552px;}
	.st15{font-size:24.4109px;}
	.st16{fill:none;stroke:#4B6E86;stroke-width:2;stroke-miterlimit:10;}
	.st17{fill:#FFFFFF;}
	.st18{font-family:'Raleway-SemiBold';}
	.st19{font-size:34.4511px;}
</style>
<g>
	<defs>
		<rect id="SVGID_1_" y="50" width="1000" height="430"/>
	</defs>
	<clipPath id="SVGID_2_">
		<use xlink:href="#SVGID_1_"  style="overflow:visible;"/>
	</clipPath>
	<g style="clip-path:url(#SVGID_2_);">
		
			<image style="overflow:visible;" width="5346" height="3564" xlink:href="images/houses.jpg"  transform="matrix(0.1871 0 0 0.1871 -8.453109e-02 -21.9414)">
		</image>
	</g>
</g>
<rect x="524.8" y="480" class="st0" width="475.4" height="1747.9"/>
<rect class="st1" width="1000" height="84"/>
<rect x="37.2" y="202.3" class="st2" width="604.2" height="152.5"/>
<text transform="matrix(1 0 0 1 20.2266 59.4262)" class="st3 st4 st5">Home</text>
<polygon class="st6" points="555,638.7 555,521 591,521 591,586.5 "/>
<polygon class="st3" points="530.7,689 624.4,551 670,551 582.9,689 "/>
<polygon class="st3" points="615.5,652 683,551 728.7,551 704.3,587.7 662.3,652 "/>
<polygon class="st7" points="714.8,616 704.3,589 728.7,552.3 763.6,616 "/>
<text transform="matrix(1 0 0 1 51.3047 304.6387)" class="st3 st8 st9">Sunny Leaf Homes</text>
<g>
	<text transform="matrix(1 0 0 1 187.1703 59.4262)" class="st3 st4 st5">About</text>
</g>
<g>
	<text transform="matrix(1 0 0 1 353.5449 59.4263)" class="st3 st4 st5">Our Listings</text>
</g>
<g>
	<text transform="matrix(1 0 0 1 620.0001 59.4261)" class="st3 st4 st5">Contact</text>
</g>
<text transform="matrix(1 0 0 1 822.939 59.4262)" class="st3 st4 st5">Location</text>
<text transform="matrix(1 0 0 1 561.7791 765.5508)" class="st3 st8 st10">Don’t Miss Out!</text>
<rect x="541" y="899.1" class="st11" width="447" height="90.5"/>
<text transform="matrix(1 0 0 1 564.9795 834.6045)" class="st3 st4 st12">Sign up for our newsletter today.</text>
<text transform="matrix(1 0 0 1 556.7917 961.6059)" class="st3 st4 st13">Name</text>
<rect x="541" y="1038.1" class="st11" width="447" height="90.5"/>
<text transform="matrix(1 0 0 1 576.2675 1500.9532)"><tspan x="0" y="0" class="st3 st4 st12">Our newsletter will keep you </tspan><tspan x="-43.5" y="33.6" class="st3 st4 st12">informed on new listings so you are </tspan><tspan x="-31.1" y="67.2" class="st3 st4 st12">guarenteed to get the best house!</tspan></text>
<rect x="541" y="1183.2" class="st3" width="447" height="90.5"/>
<text transform="matrix(1 0 0 1 562.6085 1106.688)" class="st3 st4 st13">Email</text>
<text transform="matrix(1 0 0 1 605.4816 1246.4282)" class="st11 st4 st13">Sign Up Today!</text>
<text transform="matrix(1 0 0 1 23.975 540.9463)" class="st3 st4 st14">About Us</text>
<text transform="matrix(1 0 0 1 20.2264 607.2356)"><tspan x="0" y="0" class="st3 st4 st15">Sunny Leaf Homes is a real estate company </tspan><tspan x="0" y="29.3" class="st3 st4 st15">that has been in the industry for over 75 </tspan><tspan x="0" y="58.6" class="st3 st4 st15">years. Sunny Leaf Homes offers premium </tspan><tspan x="0" y="87.9" class="st3 st4 st15">and luxurious homes in the Maple District of </tspan><tspan x="0" y="117.2" class="st3 st4 st15">California. </tspan><tspan x="0" y="175.8" class="st3 st4 st15">We will bring the best and most luxurious </tspan><tspan x="0" y="205.1" class="st3 st4 st15">homes right to your email! Allow us to make</tspan><tspan x="0" y="234.3" class="st3 st4 st15">your dreams come true by signing up for </tspan><tspan x="0" y="263.6" class="st3 st4 st15">our monthly newsletter! </tspan></text>
<line class="st16" x1="21.2" y1="552.3" x2="245.7" y2="552.3"/>
<polygon class="st17" points="511,748.7 511,705.4 533.4,727 555.8,748.7 533.4,770.3 511,792 "/>
<text transform="matrix(1 0 0 1 20.098 961.6058)" class="st3 st4 st14">Explanation</text>
<line class="st16" x1="21.2" y1="977.1" x2="245.7" y2="977.1"/>
<text transform="matrix(1 0 0 1 553.5906 1816.9219)"><tspan x="0" y="0" class="st3 st18 st19">For a limited time sign up </tspan><tspan x="24.5" y="41.3" class="st3 st18 st19">for our newsletter and </tspan><tspan x="54.4" y="82.7" class="st3 st18 st19">get a FREE HOUSE!</tspan></text>
<line class="st16" x1="700.3" y1="1915" x2="924.7" y2="1915"/>
<image style="overflow:visible;" width="90" height="90" xlink:href="../../class/week8/images/leaf copy.png"  transform="matrix(-2.516123e-10 1.6784 -1.8681 -2.260624e-10 836.3233 1604.9706)">
</image>
<g>
	<text transform="matrix(1 0 0 1 543.3735 2191.4109)" class="st3 st4 st12">Copyright 2017 Sunny Leaf Homes</text>
</g>
<g>
	<text transform="matrix(1 0 0 1 20.2265 1030.8274)"><tspan x="0" y="0" class="st3 st4 st15">I believe I have created a website that will </tspan><tspan x="0" y="29.3" class="st3 st4 st15">have a very effective conversion rate </tspan><tspan x="0" y="58.6" class="st3 st4 st15">because of my use of the principles of </tspan><tspan x="0" y="87.9" class="st3 st4 st15">conversion.  </tspan></text>
</g>
<image style="overflow:visible;" width="90" height="90" xlink:href="../../class/week8/images/leaf copy.png"  transform="matrix(-8.127984e-11 0.6035 -0.6035 -8.127984e-11 78.4604 1151.5876)">
</image>
<g>
	<text transform="matrix(1 0 0 1 96.424 1176.5609)"><tspan x="0" y="0" class="st3 st4 st15">Encapsulation: by wrapping the sign-</tspan><tspan x="0" y="29.3" class="st3 st4 st15">up forum for the newsletter in a </tspan><tspan x="0" y="58.6" class="st3 st4 st15">different colour than the rest of the </tspan><tspan x="0" y="87.9" class="st3 st4 st15">page, it creates a clear distinction</tspan><tspan x="0" y="117.2" class="st3 st4 st15">between the newsletter and the rest</tspan><tspan x="0" y="146.5" class="st3 st4 st15">of the page. You can clearly see how</tspan><tspan x="0" y="175.8" class="st3 st4 st15">to sign up and will not miss any of the </tspan><tspan x="0" y="205.1" class="st3 st4 st15">information.  </tspan></text>
</g>
<image style="overflow:visible;" width="90" height="90" xlink:href="../../class/week8/images/leaf copy.png"  transform="matrix(-8.127984e-11 0.6035 -0.6035 -8.127984e-11 78.4604 1406.0076)">
</image>
<g>
	<text transform="matrix(1 0 0 1 96.424 1435.3005)"><tspan x="0" y="0" class="st3 st4 st15">Contrast: by inversing the colours of </tspan><tspan x="0" y="29.3" class="st3 st4 st15">the sign up button from the rest of</tspan><tspan x="0" y="58.6" class="st3 st4 st15">the forum it draws attention to </tspan><tspan x="0" y="87.9" class="st3 st4 st15">the button and helps intrigue users. </tspan><tspan x="0" y="117.2" class="st3 st4 st15">Doing this means they are more likely </tspan><tspan x="0" y="146.5" class="st3 st4 st15">to click on it and sign up for the </tspan><tspan x="0" y="175.8" class="st3 st4 st15">newsletter.    </tspan></text>
</g>
<image style="overflow:visible;" width="90" height="90" xlink:href="../../class/week8/images/leaf copy.png"  transform="matrix(-8.127984e-11 0.6035 -0.6035 -8.127984e-11 78.4604 1663.5142)">
</image>
<g>
	<text transform="matrix(1 0 0 1 96.4243 1688.0597)"><tspan x="0" y="0" class="st3 st4 st15">Directional cues: the subliminal white </tspan><tspan x="0" y="29.3" class="st3 st4 st15">arrow pointing to the forum helps </tspan><tspan x="0" y="58.6" class="st3 st4 st15">attract the users attention and </tspan><tspan x="0" y="87.9" class="st3 st4 st15">effectively guides them through the </tspan><tspan x="0" y="117.2" class="st3 st4 st15">page.   </tspan></text>
</g>
<image style="overflow:visible;" width="90" height="90" xlink:href="../../class/week8/images/leaf copy.png"  transform="matrix(-8.127984e-11 0.6035 -0.6035 -8.127984e-11 78.4604 1855.0101)">
</image>
<g>
	<text transform="matrix(1 0 0 1 96.4244 1890.8684)"><tspan x="0" y="0" class="st3 st4 st15">Demo: I created the limited sign up </tspan><tspan x="0" y="29.3" class="st3 st4 st15">so that users feel pressure to sign up </tspan><tspan x="0" y="58.6" class="st3 st4 st15">for the newsletter before the deal has</tspan><tspan x="0" y="87.9" class="st3 st4 st15">expired. </tspan></text>
</g>
<image style="overflow:visible;" width="90" height="90" xlink:href="../../class/week8/images/leaf copy.png"  transform="matrix(-8.127984e-11 0.6035 -0.6035 -8.127984e-11 78.4604 2022.2352)">
</image>
<g>
	<text transform="matrix(1 0 0 1 94.4244 2060.2825)"><tspan x="0" y="0" class="st3 st4 st15">Urgency and Scarcity: by saying “don’t</tspan><tspan x="0" y="29.3" class="st3 st4 st15">miss out” and guarenteeing them the </tspan><tspan x="0" y="58.6" class="st3 st4 st15">best offer if they sign up, my visitors </tspan><tspan x="0" y="87.9" class="st3 st4 st15">understand that they have a deadline, </tspan><tspan x="0" y="117.2" class="st3 st4 st15">and users will be more likely to sign </tspan><tspan x="0" y="146.5" class="st3 st4 st15">up.</tspan></text>
</g>
</svg>
